<svg width="102" height="102" viewBox="0 0 102 102" fill="none" xmlns="http://www.w3.org/2000/svg">
<path d="M76.5 34C76.5 27.237 73.8134 20.751 69.0312 15.9688C64.249 11.1866 57.763 8.5 51 8.5C44.237 8.5 37.751 11.1866 32.9688 15.9688C28.1866 20.751 25.5 27.237 25.5 34C25.5 63.75 12.75 72.25 12.75 72.25H89.25C89.25 72.25 76.5 63.75 76.5 34Z" stroke="#F9F9F9" stroke-width="7" stroke-linecap="round" stroke-linejoin="round"/>
<path d="M58.3525 89.25C57.6053 90.5381 56.5328 91.6073 55.2424 92.3505C53.9521 93.0937 52.4891 93.4849 51 93.4849C49.5108 93.4849 48.0479 93.0937 46.7575 92.3505C45.4671 91.6073 44.3947 90.5381 43.6475 89.25" stroke="#F9F9F9" stroke-width="7" stroke-linecap="round" stroke-linejoin="round"/>
</svg>
