<svg width="49" height="48" viewBox="0 0 49 48" fill="none" xmlns="http://www.w3.org/2000/svg">
<path d="M22.458 8H8.16634C7.08337 8 6.04476 8.42143 5.27899 9.17157C4.51321 9.92172 4.08301 10.9391 4.08301 12V40C4.08301 41.0609 4.51321 42.0783 5.27899 42.8284C6.04476 43.5786 7.08337 44 8.16634 44H36.7497C37.8326 44 38.8713 43.5786 39.637 42.8284C40.4028 42.0783 40.833 41.0609 40.833 40V26" stroke="#FF624D" stroke-width="4" stroke-linecap="round" stroke-linejoin="round"/>
<path d="M37.7705 5C38.5827 4.20435 39.6844 3.75735 40.833 3.75735C41.9817 3.75735 43.0833 4.20435 43.8955 5C44.7077 5.79564 45.164 6.87478 45.164 8C45.164 9.12521 44.7077 10.2043 43.8955 11L24.4997 30L16.333 32L18.3747 24L37.7705 5Z" stroke="#FF624D" stroke-width="4" stroke-linecap="round" stroke-linejoin="round"/>
</svg>
