<svg width="131" height="116" viewBox="0 0 131 116" fill="none" xmlns="http://www.w3.org/2000/svg">
<g clip-path="url(#clip0)">
<path d="M36.3619 39.8346H50.9174V54.3346C50.9174 55.296 51.3008 56.218 51.9832 56.8979C52.6657 57.5777 53.5912 57.9596 54.5563 57.9596H69.1119C70.077 57.9596 71.0025 57.5777 71.685 56.8979C72.3674 56.218 72.7508 55.296 72.7508 54.3346V39.8346H87.3063C88.2714 39.8346 89.197 39.4527 89.8794 38.7729C90.5618 38.093 90.9452 37.171 90.9452 36.2096V21.7096C90.9452 20.7482 90.5618 19.8262 89.8794 19.1463C89.197 18.4665 88.2714 18.0846 87.3063 18.0846H72.7508V3.58459C72.7508 2.62318 72.3674 1.70115 71.685 1.02133C71.0025 0.341513 70.077 -0.0404053 69.1119 -0.0404053H54.5563C53.5912 -0.0404053 52.6657 0.341513 51.9832 1.02133C51.3008 1.70115 50.9174 2.62318 50.9174 3.58459V18.0846H36.3619C35.3968 18.0846 34.4712 18.4665 33.7888 19.1463C33.1064 19.8262 32.723 20.7482 32.723 21.7096V36.2096C32.723 37.171 33.1064 38.093 33.7888 38.7729C34.4712 39.4527 35.3968 39.8346 36.3619 39.8346ZM129.197 76.1548C128.49 75.1946 127.599 74.383 126.576 73.7665C125.554 73.1501 124.419 72.7409 123.237 72.5626C122.055 72.3843 120.849 72.4403 119.689 72.7275C118.529 73.0146 117.437 73.5272 116.477 74.2358L89.2599 94.2141H61.8295C60.8644 94.2141 59.9389 93.8322 59.2565 93.1524C58.574 92.4726 58.1907 91.5505 58.1907 90.5891C58.1907 89.6277 58.574 88.7057 59.2565 88.0259C59.9389 87.346 60.8644 86.9641 61.8295 86.9641H79.6237C83.2626 86.9641 86.6172 84.5014 87.2131 80.9353C87.389 79.894 87.3348 78.827 87.0545 77.8086C86.7741 76.7903 86.2742 75.8451 85.5896 75.0389C84.905 74.2327 84.0522 73.5849 83.0906 73.1406C82.129 72.6963 81.0817 72.4662 80.0217 72.4664H43.6328C37.4955 72.4651 31.5442 74.5648 26.7757 78.4137L16.2001 86.9641H3.60959C2.64652 86.9707 1.72476 87.3547 1.04375 88.0331C0.362743 88.7115 -0.0227431 89.6297 -0.0292969 90.5891V112.339C-0.0227431 113.299 0.362743 114.217 1.04375 114.895C1.72476 115.574 2.64652 115.958 3.60959 115.964H82.528C87.5756 115.952 92.4891 114.344 96.5605 111.372L127.27 88.8129C129.209 87.3872 130.5 85.2538 130.861 82.8807C131.222 80.5076 130.624 78.0887 129.197 76.1548Z" fill="#F9F9F9"/>
</g>
<defs>
<clipPath id="clip0">
<rect width="131" height="116" fill="white"/>
</clipPath>
</defs>
</svg>
