<svg width="166" height="147" viewBox="0 0 166 147" fill="none" xmlns="http://www.w3.org/2000/svg">
<path d="M155.625 27.5625V119.438H10.375V27.5625H155.625ZM166 18.375H0V128.625H166V18.375Z" fill="#F9F9F9"/>
<path d="M93.375 45.9375H145.25V55.125H93.375V45.9375Z" fill="#F9F9F9"/>
<path d="M93.375 64.3125H145.25V73.5H93.375V64.3125Z" fill="#F9F9F9"/>
<path d="M93.375 82.6875H114.125V91.875H93.375V82.6875Z" fill="#F9F9F9"/>
<path d="M67.4367 45.9375C61.2117 45.9375 56.0242 51.45 51.8742 55.125C47.7242 51.45 42.5367 45.9375 36.3117 45.9375C20.7492 45.9375 14.5242 63.3938 25.9367 72.5813L51.8742 91.875L77.8117 72.5813C89.2242 63.3938 82.9992 45.9375 67.4367 45.9375Z" fill="#FF624D"/>
</svg>
