<svg width="49" height="48" viewBox="0 0 49 48" fill="none" xmlns="http://www.w3.org/2000/svg">
<path d="M24.4997 44C35.7755 44 44.9163 35.0457 44.9163 24C44.9163 12.9543 35.7755 4 24.4997 4C13.2239 4 4.08301 12.9543 4.08301 24C4.08301 35.0457 13.2239 44 24.4997 44Z" stroke="#FF974D" stroke-width="4" stroke-linecap="round" stroke-linejoin="round"/>
<path d="M18.5586 18C19.0386 16.6633 19.986 15.5362 21.2331 14.8183C22.4801 14.1003 23.9463 13.8379 25.372 14.0774C26.7976 14.317 28.0908 15.0431 29.0223 16.1271C29.9538 17.2111 30.4637 18.5831 30.4615 20C30.4615 24 24.3365 26 24.3365 26" stroke="#FF974D" stroke-width="4" stroke-linecap="round" stroke-linejoin="round"/>
<path d="M24.5 34H24.521" stroke="#FF974D" stroke-width="4" stroke-linecap="round" stroke-linejoin="round"/>
</svg>
