<svg width="45" height="44" viewBox="0 0 45 44" fill="none" xmlns="http://www.w3.org/2000/svg">
<path d="M12.2913 20L20.458 2C22.0825 2 23.6404 2.63214 24.789 3.75736C25.9377 4.88258 26.583 6.4087 26.583 8V16H38.1388C38.7307 15.9934 39.317 16.113 39.8571 16.3504C40.3971 16.5879 40.878 16.9375 41.2664 17.375C41.6548 17.8126 41.9415 18.3276 42.1065 18.8845C42.2715 19.4414 42.311 20.0267 42.2222 20.6L39.4047 38.6C39.257 39.5538 38.7624 40.4232 38.0121 41.048C37.2617 41.6728 36.3061 42.0109 35.3213 42H12.2913M12.2913 20V42M12.2913 20H6.16634C5.08337 20 4.04476 20.4214 3.27899 21.1716C2.51321 21.9217 2.08301 22.9391 2.08301 24V38C2.08301 39.0609 2.51321 40.0783 3.27899 40.8284C4.04476 41.5786 5.08337 42 6.16634 42H12.2913" stroke="#007AFF" stroke-width="4" stroke-linecap="round" stroke-linejoin="round"/>
</svg>
